<?xml version="1.0" encoding="UTF-8" standalone="no"?>
<!-- Created with Inkscape (http://www.inkscape.org/) -->

<svg
   xmlns:dc="http://purl.org/dc/elements/1.1/"
   xmlns:cc="http://creativecommons.org/ns#"
   xmlns:rdf="http://www.w3.org/1999/02/22-rdf-syntax-ns#"
   xmlns:svg="http://www.w3.org/2000/svg"
   xmlns="http://www.w3.org/2000/svg"
   xmlns:sodipodi="http://sodipodi.sourceforge.net/DTD/sodipodi-0.dtd"
   xmlns:inkscape="http://www.inkscape.org/namespaces/inkscape"
   width="311.6131"
   height="128.17902"
   id="svg2"
   version="1.1"
   inkscape:version="0.48.4 r9939"
   sodipodi:docname="Neues Dokument 1">
  <defs
     id="defs4" />
  <sodipodi:namedview
     id="base"
     pagecolor="#ffffff"
     bordercolor="#666666"
     borderopacity="1.0"
     inkscape:pageopacity="0.0"
     inkscape:pageshadow="2"
     inkscape:zoom="0.98994949"
     inkscape:cx="-47.801786"
     inkscape:cy="-191.30286"
     inkscape:document-units="px"
     inkscape:current-layer="layer1"
     showgrid="false"
     inkscape:window-width="1920"
     inkscape:window-height="1027"
     inkscape:window-x="-8"
     inkscape:window-y="-8"
     inkscape:window-maximized="1"
     fit-margin-top="0"
     fit-margin-left="0"
     fit-margin-right="0"
     fit-margin-bottom="0" />
  <metadata
     id="metadata7">
    <rdf:RDF>
      <cc:Work
         rdf:about="">
        <dc:format>image/svg+xml</dc:format>
        <dc:type
           rdf:resource="http://purl.org/dc/dcmitype/StillImage" />
        <dc:title></dc:title>
      </cc:Work>
    </rdf:RDF>
  </metadata>
  <g
     inkscape:label="Ebene 1"
     inkscape:groupmode="layer"
     id="layer1"
     transform="translate(-225.75641,-42.69643)">
    <g
       id="layer1-9"
       inkscape:label="Ebene 1"
       transform="matrix(0.28977718,0,0,0.28977718,283.32993,-37.157921)">
      <path
         inkscape:connector-curvature="0"
         id="path3009"
         d="m 850.11979,708.92511 c -6.587,-9.27403 -6.9726,-9.53605 -15.6198,-10.61432 -2.75,-0.34291 -7.925,-1.02849 -11.5,-1.5235 -3.575,-0.49501 -10.775,-1.15485 -16,-1.46632 -26.1209,-1.5571 -23.877,-0.99438 -40.9829,-10.27762 -8.5344,-4.63154 -16.0515,-8.9456 -16.7046,-9.5868 -0.6531,-0.64119 -4.6246,-9.04081 -8.8255,-18.66581 l -7.63812,-17.5 0.61785,-36 c 0.70432,-41.03814 2.96839,-66.95058 7.20837,-82.5 4.0903,-15.00075 4.7538,-16.23576 10.6066,-19.74195 7.4512,-4.46371 16.2528,-8.16186 23.3818,-9.82432 5.6924,-1.32743 6.8391,-1.2795 15,0.62685 4.8601,1.13528 15.1981,4.06109 22.9734,6.50178 15.0274,4.71721 17.8553,5.13969 20.5745,3.07381 0.9413,-0.71513 5.8913,-9.35687 11,-19.20388 7.6496,-14.74454 9.7747,-18.0729 12.0437,-18.86282 1.7895,-0.62299 3.103,-0.61138 3.7475,0.0331 0.928,0.92797 15.3193,105.55561 16.6291,120.89742 0.633,7.41304 -6.3647,130.49684 -7.4864,131.68145 -0.3549,0.3748 -3.3453,0.96369 -6.6453,1.30865 l -6,0.62719 -6.3802,-8.98292 z m -12.5199,-44.0321 c 2.6817,-1.6353 3.1874,-2.63519 3.7489,-7.41307 0.357,-3.03755 -0.022,-13.77275 -0.8426,-23.85601 -0.8204,-10.08325 -2.8514,-36.55819 -4.5133,-58.83319 -1.6618,-22.275 -3.2656,-41.69084 -3.5639,-43.14631 -0.8651,-4.22086 -3.3248,-5.58409 -11.429,-6.33417 -4.125,-0.38179 -11.9377,-1.80044 -17.3616,-3.15257 -9.3207,-2.32356 -10.5,-2.39903 -21.5,-1.37588 -6.4829,0.60299 -12.1298,1.61993 -12.7478,2.29572 -1.5729,1.72019 -9.3444,41.90516 -9.6141,49.71321 -0.2843,8.22904 1.1252,58.75742 1.8339,65.7435 0.6086,5.9997 5.3264,13.99915 9.3896,15.92099 3.8562,1.82391 26.2361,8.14533 36.3955,10.28026 12.4142,2.60876 26.0678,2.67996 30.2044,0.15752 z m -255.73978,46.38345 c -1.45194,-0.78881 -3.87845,-3.54766 -5.39225,-6.13077 -2.62588,-4.48072 -2.7447,-5.25169 -2.58543,-16.77576 0.0918,-6.64355 0.36258,-13.42919 0.60169,-15.07919 0.2391,-1.65 0.69333,-10.875 1.00938,-20.5 0.31605,-9.625 0.78322,-21.55 1.03814,-26.5 0.25493,-4.95 0.91131,-20.025 1.45863,-33.5 1.15022,-28.31834 1.64244,-39.96722 3.00006,-71 1.61354,-36.88252 1.95235,-44.84542 2.51036,-59 0.29272,-7.425 0.74304,-17.1 1.00071,-21.5 1.23625,-21.1102 1.6562,-42.5 0.83442,-42.5 -0.4949,0 -17.07102,-3.15 -36.83583,-7 -19.76481,-3.85 -36.90782,-7 -38.09557,-7 -1.18775,0 -2.77714,0.74893 -3.53199,1.66429 -0.75484,0.91535 -4.04208,3.88926 -7.30496,6.60869 -5.80031,4.83421 -6.05479,4.93427 -11.41799,4.48951 -4.60116,-0.38156 -5.94201,-0.96586 -8.31748,-3.62447 -3.33974,-3.73782 -3.47385,-5.89328 -0.92709,-14.90068 3.87957,-13.72125 4.3003,-14.5125 9.59508,-18.04485 l 5,-3.33569 16,0.60399 c 8.8,0.33219 20.05,0.8048 25,1.05024 4.95,0.24545 14.175,0.67357 20.5,0.95139 6.325,0.27782 17.125,0.77521 24,1.1053 l 12.5,0.60018 5.32828,-24.83395 c 6.72569,-31.34701 7.59869,-34.45759 10.39044,-37.02228 7.51705,-6.90568 18.78128,-1.29043 18.78128,9.36252 0,5.36589 6.3938,53.0864 7.21607,53.85757 0.15616,0.14645 6.80893,0.54812 14.78393,0.89258 7.975,0.34447 18.1,0.82357 22.5,1.06466 4.4,0.24109 15.2,0.69973 24,1.0192 29.02324,1.05364 31.86862,1.57046 34.36474,6.2418 0.91239,1.70747 4.13526,24.12589 4.13526,28.76502 0,3.10481 -4.5895,8.41552 -8.78906,10.1702 -5.41318,2.26178 -8.98947,0.43936 -16.32133,-8.31706 l -6.31763,-7.54513 -5.03599,0.59459 c -2.7698,0.32702 -11.56099,1.03913 -19.53599,1.58246 -7.975,0.54334 -16.3,1.20491 -18.5,1.47015 -2.2,0.26525 -8.275,0.75922 -13.5,1.09772 -5.225,0.3385 -9.79901,0.91169 -10.16446,1.27375 -0.36546,0.36207 -1.60766,8.3083 -2.76046,17.6583 -1.1528,9.35 -2.53793,20.375 -3.07806,24.5 -0.95567,7.29843 -3.62976,29.45032 -4.52686,37.5 -0.94437,8.47388 -5.51977,46.36253 -6.46061,53.5 -0.54375,4.125 -1.89804,15.15 -3.00955,24.5 -1.11151,9.35 -2.456,20.375 -2.98776,24.5 -0.53176,4.125 -1.64541,13.35 -2.47477,20.5 -2.10393,18.13808 -7.33842,61.48604 -8.51324,70.5 -0.53762,4.125 -1.25083,11.1 -1.58491,15.5 -0.92882,12.23309 -2.88011,18.18831 -6.72844,20.53475 -3.76966,2.29848 -7.18858,2.44057 -10.85076,0.45097 z m -670.860117,-3.92373 c -11.275003,-2.40211 -23.303563,-5.53624 -26.730133,-6.96473 -3.42657,-1.42849 -7.11654,-2.59726 -8.19992,-2.59726 -2.43175,0 -23.5969,-13.73184 -27.19631,-17.64483 -5.25305,-5.71069 -27.01738,-34.60305 -27.98675,-37.15267 -0.54769,-1.44053 -4.04248,-6.91289 -7.76621,-12.16082 -3.72373,-5.24792 -7.08065,-10.0716 -7.45982,-10.71928 -1.78207,-3.04405 -3.84063,-23.95392 -3.74246,-38.01416 0.15366,-22.0084 2.59431,-48.11231 4.71776,-50.4587 2.68832,-2.97055 4.23583,-2.19066 6.74737,3.40046 1.29706,2.8875 4.24713,9.17094 6.5557,13.9632 3.02833,6.28639 4.57359,11.16051 5.54809,17.5 1.81377,11.79931 9.02051,31.19924 15.82716,42.60539 4.76238,7.98048 6.97903,10.50306 15.45505,17.588 12.40536,10.36941 39.7278,28.03762 42.3126,27.36168 2.014943,-0.52692 7.626113,-6.95238 10.805363,-12.37345 3.84814,-6.5616 13.87063,-34.61818 19.96698,-55.89482 5.95989,-20.80038 9.91698,-41.22303 15.69454,-81 2.41778,-16.64583 0.61952,-46.29647 -3.99866,-65.9318 -3.0933,-13.15192 -3.63016,-14.41473 -15.76917,-37.09183 -22.23651,-41.54042 -19.25323,-37.03933 -28.772243,-43.41076 l -8.44545,-5.65287 -9.03174,4.16395 c -4.96746,2.29017 -12.96704,6.64189 -17.77685,9.67049 -10.44601,6.57755 -17.54384,14.7341 -29.06397,33.39922 -5.43466,8.80533 -10.60166,15.50501 -17.98935,23.32549 l -10.3647,10.97188 -1.72819,-2.63754 c -1.56168,-2.38344 -1.62251,-3.82591 -0.63131,-14.97189 1.45722,-16.38648 5.42956,-38.74038 8.47583,-47.69676 3.44262,-10.12173 10.01801,-21.65597 16.04054,-28.13758 2.81075,-3.025 7.42684,-8.15189 10.25797,-11.39309 5.9182,-6.7754 25.80244,-21.41375 38.24828,-28.15756 4.675,-2.53316 16.6,-7.99967 26.500003,-12.14779 20.3318,-8.51908 19.38507,-8.33881 64,-12.18681 23.58669,-2.03433 37.08935,-1.76292 47.7397,0.95959 2.34316,0.59898 5.6103,1.33382 7.2603,1.63299 1.65,0.29917 3.45,0.89258 4,1.3187 0.55,0.42611 3.86272,1.93346 7.36159,3.34965 10.807107,4.37425 60.848847,33.5305 64.304527,37.46631 1.71094,1.94865 6.58725,6.34984 10.83624,9.78041 4.68642,3.78375 8.82541,8.13352 10.52166,11.0575 1.53792,2.65106 3.35996,5.15802 4.04898,5.57104 0.68902,0.41301 5.55006,5.65896 10.80232,11.65766 10.32879,11.79671 15.32884,19.58967 25.23666,39.33326 3.5168,7.00803 8.45916,16.45803 10.98302,21 3.88115,6.98457 5.50106,11.82474 10.5039,31.38486 5.03549,19.6878 6.0521,25.18574 6.83667,36.97353 1.90916,28.68446 -5.48691,69.89608 -16.85708,93.92917 -5.24363,11.08346 -18.3222,33.03899 -23.35165,39.20137 -28.97715,35.50455 -40.59958,47.60875 -59.12525,61.57609 -9.9262,7.48381 -13.16617,9.24305 -30.60159,16.61604 -18.972607,8.02302 -19.851597,8.28636 -32.499997,9.73656 -8.57462,0.98312 -26.44636,1.62319 -52.5,1.88025 l -39.5,0.38974 -20.5,-4.36748 z m 114,-44.24206 c 9.88389,-4.81324 27.019227,-17.00602 35.180877,-25.03322 4.93759,-4.85626 6.17418,-6.90243 9.45118,-15.63876 l 3.7703,-10.05147 -2.63656,-10.06316 C 66.57742,586.3379 66.70882,586.55569 51.49151,570.37955 38.726203,556.80991 32.572253,552.34654 14.247173,543.36672 c -9.27029,-4.5427 -24.897,-10.25949 -25.73994,-9.41655 -0.27625,0.27625 -3.45052,13.96589 -7.05392,30.42142 -7.19104,32.83907 -6.6548,31.0097 -18.86809,64.36834 -4.72188,12.89705 -8.58523,23.99724 -8.58523,24.66709 0,0.66985 -0.91131,3.34391 -2.02513,5.94235 -1.11382,2.59844 -1.80428,4.94529 -1.53435,5.21522 0.78666,0.78667 45.09326,3.0444 56.05948,2.85663 9.52564,-0.16311 10.4032,-0.36758 18.5,-4.31055 z M 123.73724,562.4363 c 8.87771,-13.81978 10.43158,-17.02413 11.92034,-24.58168 1.94901,-9.89396 5.25944,-52.24798 4.19343,-53.65129 -0.95531,-1.2576 -5.85102,-23.7847 -5.85102,-26.92289 0,-1.15819 -2.82406,-7.70468 -6.27569,-14.54775 -3.45163,-6.84307 -8.45369,-17.26565 -11.11569,-23.16128 -3.07526,-6.8109 -5.52378,-10.93635 -6.71536,-11.31455 -3.40284,-1.08002 -2.79286,-2.10326 -14.00035,23.48546 -6.59143,15.04944 -9.31973,19.33773 -19.52003,30.68119 -3.89091,4.32698 -8.56613,9.58658 -10.38937,11.68801 -3.41042,3.93078 -29.929817,24.73236 -34.657787,27.18526 l -2.64952,1.37459 2.4119,0.55206 c 1.32654,0.30364 4.58895,1.01627 7.2498,1.58362 2.660837,0.56736 9.860837,3.08677 15.999997,5.59869 10.0952,4.1306 11.74145,5.17948 17.22339,10.97359 3.33371,3.52354 9.1641,8.54506 12.95644,11.15893 5.48747,3.78224 9.19626,7.71272 18.1666,19.25248 6.1993,7.975 11.2814,15.04014 11.29356,15.70031 0.0268,1.45515 3.14699,3.34054 4.32426,2.61295 0.46467,-0.28718 2.91047,-3.73765 5.4351,-7.6677 z M 7.349883,453.68964 c 22.79244,-7.30703 28.61519,-9.661 29.75816,-12.03036 0.36309,-0.7527 1.25541,-2.71854 1.98293,-4.36854 0.72752,-1.65 1.857737,-3.675 2.511607,-4.5 0.65386,-0.825 1.93037,-3.75 2.83669,-6.5 0.90632,-2.75 4.32825,-10.51828 7.60428,-17.26283 3.27604,-6.74456 5.95644,-12.9055 5.95644,-13.69099 0,-0.78548 0.41196,-1.68275 0.91547,-1.99394 0.50351,-0.31118 1.89194,-3.60024 3.0854,-7.30901 1.19346,-3.70878 2.74349,-7.41823 3.4445,-8.24323 0.70102,-0.825 1.80718,-4.29697 2.45814,-7.71548 1.02041,-5.35872 0.95811,-6.65144 -0.45195,-9.37818 -0.89952,-1.73949 -2.25853,-5.2607 -3.02002,-7.82491 -1.52867,-5.14758 -4.54891,-8.45772 -11.62484,-12.74066 -2.58132,-1.56242 -10.19928,-6.89077 -16.928797,-11.84077 -6.72951,-4.95 -12.83174,-9.36082 -13.56049,-9.80182 -1.41889,-0.85862 -35.17461,-7.0672 -44.31741,-8.15115 -4.70566,-0.55789 -6.99708,-0.14292 -15.86575,2.87326 -5.70116,1.93893 -12.37704,4.70403 -14.83528,6.14465 -5.95639,3.49068 -5.98024,3.39276 6.43661,26.43506 3.66845,6.80766 6.2747,13.63639 9.19624,24.09541 2.24233,8.02748 5.8999,19.05248 8.12794,24.5 2.22803,5.44753 4.89301,13.95459 5.92216,18.90459 1.02915,4.95 2.80424,12.36596 3.94463,16.4799 1.55682,5.61619 2.07345,10.41257 2.07345,19.25 0,7.89267 0.36234,11.7701 1.09989,11.7701 0.60493,0 11.06743,-3.1955 23.25,-7.1011 z M 263.49999,709.07998 c -1.1,-0.29065 -5.29536,-2.04963 -9.32303,-3.90885 -4.02767,-1.85921 -7.50104,-3.38039 -7.71861,-3.38039 -0.89217,0 -12.59241,-8.43155 -18.76165,-13.52023 -9.57477,-7.89772 -20.89958,-22.3961 -24.19856,-30.97977 -5.57476,-14.50506 -6.39703,-17.17987 -7.37796,-24 -0.55374,-3.85 -1.52082,-10.60638 -2.14906,-15.01418 -0.62824,-4.4078 -1.21625,-21.2828 -1.30669,-37.5 l -0.16444,-29.48582 4.24241,-13 c 2.33332,-7.15 4.89586,-16.17324 5.69452,-20.05165 1.64172,-7.97238 4.1638,-15.85429 6.04671,-18.89697 8.13343,-13.14316 11.1573,-16.94522 17.75094,-22.31908 6.97731,-5.68655 7.76111,-6.04448 19.76542,-9.02598 6.875,-1.70753 17.225,-4.29442 23,-5.74864 8.85183,-2.229 12.85453,-2.66246 25.5,-2.76147 14.06128,-0.1101 15.42717,0.0506 21.82588,2.56745 6.43543,2.53131 16.62477,9.66677 21.25916,14.8875 1.14677,1.29186 3.1178,4.82384 4.38007,7.84884 1.26227,3.025 4.42368,10.02964 7.02536,15.56587 5.92281,12.60342 7.20617,18.30806 9.5463,42.43413 0.75708,7.80525 -1.50034,22.0481 -4.39327,27.71871 -1.27408,2.49741 -4.22665,5.43275 -8.22374,8.17576 -3.42981,2.35371 -7.55528,5.25283 -9.16771,6.4425 -2.8821,2.12643 -3.48715,2.15892 -35.76233,1.9204 -37.40826,-0.27647 -40.40888,-0.45699 -51.76097,-3.11413 -5.87491,-1.37511 -10.14827,-3.15894 -14.75,-6.15708 -3.56331,-2.32159 -6.47875,-4.69322 -6.47875,-5.27029 0,-0.57706 -0.29053,-0.75868 -0.64561,-0.40359 -0.83927,0.83927 -0.59129,11.26525 0.61098,25.68772 0.52726,6.325 1.48343,18.1334 2.12482,26.24089 l 1.16617,14.74089 4.62182,5.36114 c 2.542,2.94862 9.09338,10.56633 14.55861,16.92824 5.46524,6.3619 10.86524,11.73731 12,11.94534 1.13477,0.20803 11.57157,0.50741 23.1929,0.66528 l 21.12968,0.28705 21.00682,-7.58441 c 11.68125,-4.21747 22.62522,-7.58442 24.65243,-7.58442 6.78905,0 10.39788,2.33621 13.1212,8.49412 5.1892,11.73369 3.71784,13.63952 -19.67923,25.4902 -10.09832,5.11483 -20.63469,10.55014 -23.41415,12.07846 -3.06678,1.68631 -7.78453,3.15673 -12,3.74015 -7.32382,1.01359 -43.53139,1.38867 -46.94644,0.48631 z m 48.19536,-161.99273 c -0.26409,-0.43808 -3.40042,-7.32151 -6.96962,-15.29651 -15.63875,-34.94305 -14.97891,-33.64756 -16.88268,-33.14655 -0.73868,0.1944 -6.74306,1.46778 -13.34306,2.82973 -13.52613,2.79121 -12.07409,1.76524 -26,18.37099 -3.85,4.59088 -8.6875,10.2196 -10.75,12.50827 -2.0625,2.28867 -3.72767,4.5609 -3.70038,5.04939 0.0273,0.48849 2.81193,2.97689 6.1881,5.52977 l 6.13847,4.64159 32.89967,0.15492 c 18.09481,0.0852 32.68359,-0.20352 32.4195,-0.6416 z m 361.5632,159.2552 c -3.52602,-1.57509 -5.02505,-4.30661 -7.7939,-14.20199 -1.08524,-3.87846 -1.46697,-7.38762 -1.03342,-9.5 0.37813,-1.84235 1.07946,-8.29972 1.55849,-14.34972 0.47904,-6.05 1.1215,-14.15 1.42768,-18 0.30619,-3.85 1.23725,-17.575 2.06902,-30.5 0.83178,-12.925 1.73663,-26.2 2.01079,-29.5 0.27416,-3.3 1.17883,-16.35 2.01039,-29 2.77449,-42.20681 3.49687,-50.63986 4.4981,-52.51066 0.54686,-1.02182 0.99429,-3.00534 0.99429,-4.40782 0,-1.40248 1.30316,-4.00846 2.89591,-5.79105 2.70225,-3.02434 3.40424,-3.26676 10.49704,-3.62493 9.44429,-0.47692 11.66502,0.0684 16.08645,3.95051 4.33064,3.80236 5.37638,7.53965 4.29523,15.35044 -0.45933,3.31843 -1.69463,12.55851 -2.74511,20.53351 -1.05049,7.975 -2.63039,19.9 -3.51091,26.5 -0.88051,6.6 -2.00917,15.15 -2.50814,19 -1.57771,12.17345 -3.88956,29.60091 -5.50521,41.5 -0.85881,6.325 -1.97725,14.875 -2.48543,19 -0.83565,6.7832 -1.81575,14.2657 -6.47493,49.43253 -1.2774,9.64162 -1.77884,11.2625 -4.24666,13.72698 -3.44613,3.44145 -7.76833,4.30024 -12.03968,2.3922 z m -279.04177,-3.11241 c -4.95144,-3.46813 -6.78842,-12.49943 -3.74103,-18.39242 0.81166,-1.56958 3.17416,-3.90199 5.25,-5.18312 2.07583,-1.28113 5.34924,-3.72311 7.27424,-5.42664 2.11446,-1.87118 6.66695,-4.12262 11.5,-5.68734 4.4,-1.42452 12.5,-4.23144 18,-6.23761 5.5,-2.00617 13.81203,-4.97665 18.47119,-6.60106 4.65915,-1.62442 8.75781,-3.28145 9.10814,-3.6823 0.35033,-0.40084 4.57773,-7.18811 9.39422,-15.0828 l 8.75725,-14.354 -7.8654,-7.41401 c -4.32597,-4.07771 -11.58345,-9.68947 -16.12772,-12.47058 -10.08554,-6.17236 -23.36029,-18.54244 -29.66706,-27.64526 -2.57679,-3.71919 -6.3175,-9.01216 -8.31268,-11.76216 -2.15751,-2.97374 -7.18786,-13.87007 -12.4129,-26.88784 l -8.7853,-21.88784 0.32875,-9.12436 c 0.28241,-7.83852 1.12893,-11.6057 6.00696,-26.73212 l 5.67821,-17.60776 11.68703,-9.88004 c 27.41789,-23.17866 24.37844,-21.81461 49.28581,-22.1186 10.75057,-0.13121 20.99434,0.17668 22.76393,0.68419 3.51202,1.00724 17.24069,11.41912 29.40034,22.29734 10.73283,9.60178 15.34386,20.11514 11.75959,26.81242 -2.43387,4.54772 -12.28024,6.51714 -16.79014,3.35829 -1.24564,-0.87248 -8.20827,-4.28236 -15.47251,-7.57752 l -13.20771,-5.99119 -17.39886,1.82359 -17.39886,1.8236 -11.60114,11.79754 c -12.27814,12.48601 -13.54913,14.39722 -14.62124,21.98618 -0.6628,4.69166 -0.51428,5.04043 8.4227,19.77975 5.00357,8.25214 9.0974,15.19457 9.0974,15.42762 0,0.23305 2.67613,4.85365 5.94695,10.26801 6.43175,10.64679 4.80355,9.3668 21.05305,16.5505 3.025,1.33732 7.975,3.56611 11,4.95288 3.025,1.38677 7.75,3.53182 10.5,4.76678 8.72076,3.91628 14.82385,6.66988 21,9.47479 3.3,1.4987 7.01229,3.11394 8.24954,3.58942 1.23725,0.47549 3.17064,2.33824 4.29643,4.13944 3.20866,5.13369 1.93071,9.89582 -9.33214,34.77493 -1.36943,3.025 -3.38222,7.525 -4.47288,10 -7.6585,17.37928 -9.72842,21.79144 -11.25934,24 -0.95311,1.375 -2.03939,3.91584 -2.41395,5.64631 -0.37456,1.73047 -1.44817,3.84057 -2.38581,4.68911 -2.54043,2.29906 -28.87147,15.66458 -30.86035,15.66458 -2.1657,0 -17.80715,4.65593 -21.86521,6.50853 -3.20907,1.46501 -39.15845,8.48242 -43.48378,8.48813 -1.39013,0.002 -3.5302,-0.69898 -4.75572,-1.55736 z M 702.49999,489.03522 c -6.6,-0.73103 -13.96954,-2.06802 -16.37676,-2.97108 -4.75572,-1.7841 -8.11886,-6.0437 -8.1113,-10.2734 0.006,-3.56538 9.43663,-22.63452 11.82577,-23.91314 1.09985,-0.58863 2.29439,-2.4118 2.65453,-4.05151 1.63335,-7.43661 11.42857,-10.4972 17.43103,-5.44646 1.6922,1.4239 3.0795,3.1114 3.08289,3.75 0.003,0.63861 0.71208,2.51111 1.57486,4.16111 2.97495,5.68933 10.41897,26.64422 10.41524,29.31888 -0.003,2.18709 -3.23161,9.18112 -4.23816,9.18112 -0.14922,0 -1.61833,0.35407 -3.2647,0.78682 -1.68107,0.44187 -8.25431,0.2041 -14.9934,-0.54234 z"
         style="fill:#ffffff" />
    </g>
  </g>
</svg>
